# xmcd
# 
# Track frame offsets:
#     150
#     18192
#     35930
#     52930
#     74392
#     96540
#     119350
#     137252
#     154480
#     171917
#     198990
#     220137
#     241742
# 
# Disc length: 3493
# 
# Revision: 2
# Processed by: cddbd v1.5.2PL0 Copyright (c) Steve Scherf et al.
# Submitted via: fre:ac v1.0.31
# 
DISCID=b70da30d
DTITLE=Sidsel Storm - Scandinavian Romance
DYEAR=2013
DGENRE=Jazz
TTITLE0=All or nothing at all
TTITLE1='S wonderful
TTITLE2=My favorite things
TTITLE3=Nothing in between
TTITLE4=A little bit too late
TTITLE5=Swedish lullaby
TTITLE6=Stolen years
TTITLE7=I'm beginning to see the light
TTITLE8=Caravan
TTITLE9=Flown away
TTITLE10=Angel eyes
TTITLE11=You don't know what love is
TTITLE12=Hazy mind
EXTD=
EXTT0=
EXTT1=
EXTT2=
EXTT3=
EXTT4=
EXTT5=
EXTT6=
EXTT7=
EXTT8=
EXTT9=
EXTT10=
EXTT11=
EXTT12=
PLAYORDER=
